<svg width="24" height="24" viewBox="0 0 24 24" fill="none" xmlns="http://www.w3.org/2000/svg">
<path d="M13.02 2C14.82 2 15.2 2.02 16.12 2.06C17.18 2.11 17.91 2.28 18.54 2.53C19.2 2.78 19.76 3.13 20.31 3.68C20.87 4.23 21.21 4.79 21.47 5.45C21.72 6.08 21.88 6.81 21.93 7.88C21.98 8.83 21.99 9.2 21.99 11.2V12.8C21.99 14.8 21.98 15.17 21.93 16.12C21.9143 16.9468 21.7588 17.7651 21.47 18.54C21.21 19.2 20.87 19.76 20.32 20.31C19.76 20.87 19.2 21.21 18.54 21.47C17.91 21.72 17.18 21.88 16.12 21.93C15.17 21.98 14.79 21.99 12.79 21.99H11.2C9.2 21.99 8.83 21.98 7.87 21.93C7.04318 21.9141 6.22499 21.7586 5.45 21.47C4.78361 21.2195 4.17965 20.8271 3.68 20.32C3.16781 19.8186 2.77183 19.211 2.52 18.54C2.23162 17.765 2.0761 16.9468 2.06 16.12C2.01098 15.0874 1.99097 14.0537 2 13.02V10.97C2 9.17 2.02 8.79 2.06 7.87C2.11 6.81 2.28 6.08 2.52 5.45C2.78 4.79 3.12 4.23 3.68 3.68C4.17518 3.16743 4.78044 2.77418 5.45 2.53C6.22445 2.23821 7.04263 2.07931 7.87 2.06C8.79 2.02 9.17 2 10.97 2H13.02ZM13.04 3.8H10.95C9.22 3.8 8.85 3.82 7.95 3.86C6.98 3.9 6.45 4.06 6.1 4.2C5.63 4.38 5.3 4.6 4.95 4.95C4.6 5.3 4.38 5.63 4.2 6.1C4.07 6.45 3.9 6.98 3.86 7.96C3.82 8.86 3.8 9.22 3.8 10.96V13.04C3.8 14.78 3.82 15.14 3.86 16.04C3.9 17.01 4.06 17.54 4.2 17.89C4.38 18.36 4.6 18.69 4.95 19.04C5.3 19.39 5.63 19.61 6.1 19.79C6.45 19.93 6.98 20.09 7.96 20.13C8.93 20.18 9.28 20.19 11.44 20.19H12.55C14.72 20.19 15.06 20.18 16.04 20.13C17.01 20.09 17.54 19.93 17.89 19.79C18.36 19.61 18.69 19.39 19.04 19.04C19.39 18.69 19.61 18.36 19.79 17.89C19.93 17.54 20.09 17.01 20.13 16.04C20.18 15.06 20.19 14.72 20.19 12.55V11.45C20.19 9.28 20.18 8.93 20.13 7.95C20.09 6.98 19.93 6.45 19.79 6.1C19.6291 5.66543 19.3728 5.27246 19.04 4.95C18.7178 4.61692 18.3247 4.3606 17.89 4.2C17.2969 3.98317 16.6714 3.86822 16.04 3.86C15.0407 3.81227 14.0404 3.79226 13.04 3.8ZM12 6.86C13.3619 6.86 14.668 7.40101 15.631 8.36401C16.594 9.32701 17.135 10.6331 17.135 11.995C17.135 13.3569 16.594 14.663 15.631 15.626C14.668 16.589 13.3619 17.13 12 17.13C10.6381 17.13 9.33201 16.589 8.36901 15.626C7.40601 14.663 6.865 13.3569 6.865 11.995C6.865 10.6331 7.40601 9.32701 8.36901 8.36401C9.33201 7.40101 10.6381 6.86 12 6.86ZM12 8.66C11.1155 8.66 10.2672 9.01136 9.6418 9.6368C9.01637 10.2622 8.665 11.1105 8.665 11.995C8.665 12.8795 9.01637 13.7278 9.6418 14.3532C10.2672 14.9786 11.1155 15.33 12 15.33C12.8845 15.33 13.7328 14.9786 14.3582 14.3532C14.9836 13.7278 15.335 12.8795 15.335 11.995C15.335 11.1105 14.9836 10.2622 14.3582 9.6368C13.7328 9.01136 12.8845 8.66 12 8.66ZM17.33 5.46C17.6483 5.46 17.9535 5.58643 18.1785 5.81147C18.4036 6.03652 18.53 6.34174 18.53 6.66C18.53 6.97826 18.4036 7.28348 18.1785 7.50853C17.9535 7.73357 17.6483 7.86 17.33 7.86C17.0117 7.86 16.7065 7.73357 16.4815 7.50853C16.2564 7.28348 16.13 6.97826 16.13 6.66C16.13 6.34174 16.2564 6.03652 16.4815 5.81147C16.7065 5.58643 17.0117 5.46 17.33 5.46Z" fill="white"/>
</svg>
