<svg width="15" height="20" viewBox="0 0 15 20" fill="none" xmlns="http://www.w3.org/2000/svg">
<path d="M13.2402 0C12.9145 0 12.6321 0.10425 12.3936 0.312749L6.13114 5.78951H1.20421C0.877722 5.78951 0.596031 5.89376 0.357618 6.10226C0.119206 6.31076 0 6.55777 0 6.84263V13.1574C0 13.4422 0.119206 13.6892 0.357618 13.8977C0.596031 14.1062 0.878481 14.2105 1.20421 14.2105H6.13114L12.3936 19.6873C12.6321 19.8958 12.9137 20 13.2402 20C13.5667 20 13.8484 19.8958 14.0868 19.6873C14.3252 19.4788 14.4444 19.2324 14.4444 18.9469V1.05312C14.4444 0.76826 14.3252 0.521248 14.0876 0.312749C13.8499 0.10425 13.5675 0 13.241 0H13.2402Z" fill="#B3B3B3"/>
</svg>
