<svg width="24" height="24" viewBox="0 0 24 24" fill="none" xmlns="http://www.w3.org/2000/svg">
<path d="M12 2C9.67549 2.00824 7.42646 2.82602 5.63955 4.31277C3.85265 5.79952 2.63951 7.86234 2.20869 10.1466C1.77788 12.4309 2.1563 14.7939 3.27891 16.8293C4.40153 18.8648 6.19818 20.4456 8.36001 21.3C8.26001 20.51 8.19001 19.3 8.39001 18.43L9.56001 13.46C9.56001 13.46 9.26001 12.86 9.26001 11.98C9.26001 10.59 10.07 9.56 11.08 9.56C11.93 9.56 12.35 10.2 12.35 10.96C12.35 11.82 11.8 13.1 11.51 14.29C11.27 15.29 12.01 16.1 13 16.1C14.78 16.1 16.14 14.23 16.14 11.53C16.14 9.13 14.42 7.47 11.96 7.47C11.3756 7.44433 10.7921 7.53734 10.2446 7.74342C9.69712 7.94951 9.19708 8.26438 8.77466 8.66904C8.35224 9.07371 8.0162 9.55977 7.78681 10.0979C7.55742 10.636 7.43945 11.215 7.44001 11.8C7.44001 12.66 7.77001 13.58 8.18001 14.08C8.26001 14.18 8.27001 14.27 8.24001 14.37L7.96001 15.5C7.92001 15.68 7.81001 15.73 7.63001 15.64C6.37001 15.05 5.59001 13.24 5.59001 11.76C5.59001 8.61 7.89001 5.72 12.21 5.72C15.67 5.72 18.38 8.18 18.38 11.49C18.38 14.94 16.2 17.71 13.18 17.71C12.18 17.71 11.22 17.18 10.9 16.56L10.27 18.93C9.97488 19.8577 9.5579 20.7421 9.03001 21.56C10.4038 21.9816 11.8524 22.1021 13.277 21.9133C14.7016 21.7245 16.0688 21.2309 17.2854 20.4661C18.5021 19.7014 19.5396 18.6833 20.3273 17.4814C21.115 16.2795 21.6344 14.9219 21.8501 13.5011C22.0659 12.0804 21.9728 10.6298 21.5774 9.24822C21.182 7.86664 20.4934 6.58652 19.5586 5.49506C18.6238 4.40359 17.4648 3.52642 16.1604 2.9233C14.8561 2.32017 13.4371 2.00525 12 2Z" fill="white"/>
</svg>
